<svg width="1012" height="1012" viewBox="0 0 1012 1012" fill="none" xmlns="http://www.w3.org/2000/svg">
<path d="M0 253C0 113.272 113.272 0 253 0H759C898.728 0 1012 113.272 1012 253V759C1012 898.728 898.728 1012 759 1012H253C113.272 1012 0 898.728 0 759V253Z" fill="#2563EB"/>
<path d="M364.44 391.548C349.47 391.548 337.333 379.411 337.333 364.44C337.333 349.47 349.47 337.333 364.44 337.333H554.19C569.161 337.333 581.298 349.47 581.298 364.44C581.298 379.411 569.161 391.548 554.19 391.548H364.44ZM445.762 554.19C430.791 554.19 418.655 542.054 418.655 527.083C418.655 512.112 430.791 499.976 445.762 499.976H689.726C704.697 499.976 716.833 512.112 716.833 527.083C716.833 542.054 704.697 554.19 689.726 554.19H445.762ZM364.44 716.833C349.47 716.833 337.333 704.697 337.333 689.726C337.333 674.755 349.47 662.619 364.44 662.619H635.512C650.483 662.619 662.619 674.755 662.619 689.726C662.619 704.697 650.483 716.833 635.512 716.833H364.44Z" fill="#EFF6FF"/>
</svg>
